<svg width="10" height="11" viewBox="0 0 10 11" fill="none" xmlns="http://www.w3.org/2000/svg">
<g clip-path="url(#clip0)">
<path d="M0.0906248 0.771874L0.146875 0.8375L4.39688 5.72812C4.54063 5.89375 4.75625 5.99687 4.99687 5.99687C5.2375 5.99687 5.45312 5.89062 5.59687 5.72812L9.84375 0.846875L9.91563 0.765625C9.96875 0.6875 10 0.59375 10 0.49375C10 0.221875 9.76875 -7.25065e-08 9.48125 -8.50735e-08L0.51875 -4.76837e-07C0.23125 -4.89404e-07 1.1884e-08 0.221875 0 0.49375C-4.5077e-09 0.596875 0.0343752 0.693749 0.0906248 0.771874Z" fill="white"/>
<path d="M0.0906248 4.97109L0.146875 5.03672L4.39688 9.92734C4.54063 10.093 4.75625 10.1961 4.99687 10.1961C5.2375 10.1961 5.45312 10.0898 5.59687 9.92734L9.84375 5.04609L9.91563 4.96484C9.96875 4.88672 10 4.79297 10 4.69297C10 4.42109 9.76875 4.19922 9.48125 4.19922H0.51875C0.23125 4.19922 1.1884e-08 4.42109 0 4.69297C-4.5077e-09 4.79609 0.0343752 4.89297 0.0906248 4.97109Z" fill="white"/>
</g>
<defs>
<clipPath id="clip0">
<rect width="10" height="11" fill="white"/>
</clipPath>
</defs>
</svg>
