<svg width="10" height="11" viewBox="0 0 10 11" fill="none" xmlns="http://www.w3.org/2000/svg">
<g clip-path="url(#clip0)">
<path d="M9.90937 10.2281L9.85312 10.1625L5.60312 5.27188C5.45937 5.10625 5.24375 5.00313 5.00313 5.00313C4.7625 5.00313 4.54688 5.10938 4.40313 5.27188L0.15625 10.1531L0.0843692 10.2344C0.0312492 10.3125 -4.2493e-07 10.4062 -4.33672e-07 10.5062C-4.5744e-07 10.7781 0.23125 11 0.51875 11L9.48125 11C9.76875 11 10 10.7781 10 10.5063C10 10.4031 9.96562 10.3063 9.90937 10.2281Z" fill="white"/>
<path d="M9.90938 6.02891L9.85313 5.96328L5.60312 1.07266C5.45937 0.907001 5.24375 0.8039 5.00313 0.8039C4.7625 0.8039 4.54688 0.9102 4.40313 1.07266L0.15625 5.95391L0.0843697 6.03516C0.0312497 6.11328 5.19072e-08 6.20703 4.3165e-08 6.30703C1.93965e-08 6.57891 0.23125 6.80078 0.51875 6.80078L9.48125 6.80078C9.76875 6.80078 10 6.57891 10 6.30703C10 6.20391 9.96562 6.10703 9.90938 6.02891Z" fill="white"/>
</g>
<defs>
<clipPath id="clip0">
<rect width="10" height="11" fill="white" transform="translate(10 11) rotate(-180)"/>
</clipPath>
</defs>
</svg>
