<svg width="14" height="12" viewBox="0 0 14 12" fill="none" xmlns="http://www.w3.org/2000/svg">
<path d="M13.9204 6.84116L12.5088 4.39956C12.4849 4.35931 12.4587 4.3214 12.4266 4.28932C12.3286 4.18083 12.195 4.11142 12.0475 4.09859C11.8573 4.08459 11.6718 4.15925 11.5494 4.30507L9.67529 6.54019C9.46823 6.78691 9.50031 7.15496 9.74703 7.36144C9.99376 7.56851 10.3624 7.53643 10.5683 7.2897L11.4175 6.27771C11.095 7.93014 9.77445 9.393 8.03337 9.80129C6.55884 10.1478 5.03357 9.71613 3.95393 8.64815C3.7247 8.42126 3.35607 8.42301 3.12917 8.65282C2.90228 8.88204 2.90461 9.25068 3.13384 9.47757C4.19074 10.5216 5.58302 11.0845 7.02371 11.0845C7.44775 11.0845 7.87588 11.0355 8.30051 10.9358C10.4032 10.4429 12.0206 8.71873 12.5083 6.72917L12.9101 7.42444C13.0186 7.61167 13.214 7.71607 13.4153 7.71607C13.5144 7.71607 13.6153 7.69099 13.7069 7.63733C13.9863 7.47635 14.0819 7.11997 13.9204 6.84116Z" fill="#063777"/>
<path d="M4.3251 4.31224C4.07779 4.10576 3.71033 4.13726 3.50384 4.38457L2.49886 5.5832C2.51752 4.83544 2.72984 4.09643 3.13171 3.42683C3.77973 2.34543 4.83955 1.56384 6.03818 1.2827C7.61012 0.913489 9.25087 1.43844 10.3206 2.65049C10.5335 2.89196 10.9015 2.9153 11.1436 2.7024C11.3851 2.4895 11.4084 2.12087 11.1955 1.8794C9.84115 0.343628 7.76293 -0.320725 5.77163 0.147647C4.26735 0.499363 2.9404 1.47577 2.13081 2.82664C1.76685 3.43383 1.53062 4.08768 1.41396 4.75845L1.08383 4.20784C0.917595 3.93195 0.559463 3.84271 0.282989 4.00836C0.00709938 4.17401 -0.0827253 4.53214 0.0835086 4.80861L1.57728 7.29454C1.6741 7.45611 1.84326 7.5611 2.03107 7.57568C2.04624 7.57685 2.0614 7.57743 2.07657 7.57743C2.24805 7.57743 2.41195 7.5016 2.52394 7.3692L4.39743 5.13466C4.60449 4.88619 4.57241 4.51872 4.3251 4.31224Z" fill="#063777"/>
</svg>
