<svg width="33" height="40" viewBox="0 0 33 40" fill="none" xmlns="http://www.w3.org/2000/svg">
<path d="M33 34V8H9V34H20V38H12V40H30V38H22V34H33ZM31 24H11V18H31V24ZM31 10V16H11V10H31ZM11 26H31V32H11V26Z" fill="#A2B4CC"/>
<path d="M27.5 14C28.3284 14 29 13.3284 29 12.5C29 11.6716 28.3284 11 27.5 11C26.6716 11 26 11.6716 26 12.5C26 13.3284 26.6716 14 27.5 14Z" fill="#A2B4CC"/>
<path d="M27.5 22C28.3284 22 29 21.3284 29 20.5C29 19.6716 28.3284 19 27.5 19C26.6716 19 26 19.6716 26 20.5C26 21.3284 26.6716 22 27.5 22Z" fill="#A2B4CC"/>
<path d="M27.5 30C28.3284 30 29 29.3284 29 28.5C29 27.6716 28.3284 27 27.5 27C26.6716 27 26 27.6716 26 28.5C26 29.3284 26.6716 30 27.5 30Z" fill="#A2B4CC"/>
<path d="M17 28H16V29H17V28Z" fill="#A2B4CC"/>
<path d="M15 28H14V29H15V28Z" fill="#A2B4CC"/>
<path d="M17 30H16V31H17V30Z" fill="#A2B4CC"/>
<path d="M15 30H14V31H15V30Z" fill="#A2B4CC"/>
<path d="M14 27H13V28H14V27Z" fill="#A2B4CC"/>
<path d="M16 27H15V28H16V27Z" fill="#A2B4CC"/>
<path d="M14 29H13V30H14V29Z" fill="#A2B4CC"/>
<path d="M16 29H15V30H16V29Z" fill="#A2B4CC"/>
<path d="M18 27H17V28H18V27Z" fill="#A2B4CC"/>
<path d="M18 29H17V30H18V29Z" fill="#A2B4CC"/>
<path d="M17 20H16V21H17V20Z" fill="#A2B4CC"/>
<path d="M15 20H14V21H15V20Z" fill="#A2B4CC"/>
<path d="M17 22H16V23H17V22Z" fill="#A2B4CC"/>
<path d="M15 22H14V23H15V22Z" fill="#A2B4CC"/>
<path d="M14 19H13V20H14V19Z" fill="#A2B4CC"/>
<path d="M16 19H15V20H16V19Z" fill="#A2B4CC"/>
<path d="M14 21H13V22H14V21Z" fill="#A2B4CC"/>
<path d="M16 21H15V22H16V21Z" fill="#A2B4CC"/>
<path d="M18 19H17V20H18V19Z" fill="#A2B4CC"/>
<path d="M18 21H17V22H18V21Z" fill="#A2B4CC"/>
<path d="M17 12H16V13H17V12Z" fill="#A2B4CC"/>
<path d="M15 12H14V13H15V12Z" fill="#A2B4CC"/>
<path d="M17 14H16V15H17V14Z" fill="#A2B4CC"/>
<path d="M15 14H14V15H15V14Z" fill="#A2B4CC"/>
<path d="M14 11H13V12H14V11Z" fill="#A2B4CC"/>
<path d="M16 11H15V12H16V11Z" fill="#A2B4CC"/>
<path d="M14 13H13V14H14V13Z" fill="#A2B4CC"/>
<path d="M16 13H15V14H16V13Z" fill="#A2B4CC"/>
<path d="M18 11H17V12H18V11Z" fill="#A2B4CC"/>
<path d="M18 13H17V14H18V13Z" fill="#A2B4CC"/>
<path d="M9.5 19C14.7467 19 19 14.7467 19 9.5C19 4.25329 14.7467 0 9.5 0C4.25329 0 0 4.25329 0 9.5C0 14.7467 4.25329 19 9.5 19Z" fill="#C83032"/>
<path d="M12.8802 11.9428L10.4749 9.53748L12.8802 7.13219C13.1399 6.87251 13.1399 6.45444 12.8802 6.19476C12.6205 5.93508 12.2024 5.93508 11.9428 6.19476L9.53748 8.60004L7.13219 6.19476C6.87251 5.93508 6.45444 5.93508 6.19476 6.19476C5.93508 6.45444 5.93508 6.87251 6.19476 7.13219L8.60004 9.53748L6.19476 11.9428C5.93508 12.2024 5.93508 12.6205 6.19476 12.8802C6.45444 13.1399 6.87251 13.1399 7.13219 12.8802L9.53748 10.4749L11.9428 12.8802C12.2024 13.1399 12.6205 13.1399 12.8802 12.8802C13.138 12.6205 13.138 12.2006 12.8802 11.9428Z" fill="white"/>
</svg>
