<svg width="21" height="16" viewBox="0 0 21 16" fill="none" xmlns="http://www.w3.org/2000/svg">
<path d="M21 1.89583C20.2257 2.21667 19.398 2.43333 18.5257 2.53333C19.4158 2.03333 20.1011 1.24167 20.4215 0.3C19.5893 0.7625 18.6681 1.1 17.6847 1.27917C16.897 0.491667 15.7756 0 14.5385 0C12.1577 0 10.2308 1.80833 10.2308 4.0375C10.2308 4.35417 10.2664 4.6625 10.342 4.95833C6.75969 4.79167 3.58233 3.18333 1.45963 0.7375C1.09027 1.33333 0.876669 2.02917 0.876669 2.76667C0.876669 4.16667 1.63764 5.40417 2.79466 6.12917C2.08709 6.1125 1.41958 5.92917 0.841068 5.625C0.841068 5.64167 0.841068 5.65833 0.841068 5.675C0.841068 7.63333 2.3274 9.2625 4.29879 9.63333C3.93833 9.725 3.55563 9.775 3.16402 9.775C2.88811 9.775 2.61666 9.75 2.3541 9.7C2.90146 11.3042 4.4946 12.4708 6.38144 12.5042C4.90846 13.5875 3.04832 14.2333 1.02797 14.2333C0.680865 14.2333 0.338207 14.2125 0 14.175C1.90464 15.3333 4.16974 16 6.59949 16C14.5296 16 18.864 9.84583 18.864 4.50833C18.864 4.33333 18.8595 4.15833 18.8506 3.9875C19.6917 3.41667 20.4215 2.70417 21 1.89583Z" fill="#2FA8FF"/>
</svg>
